<svg xmlns="http://www.w3.org/2000/svg" viewBox="0 0 62.14 61.92"><defs><style>.cls-1{fill:none;}.cls-2{fill:#1e2b3c;}</style></defs><g id="Layer_2" data-name="Layer 2"><g id="Ikoner"><g id="eFormidling"><rect class="cls-1" x="23.69" y="51.41" width="14.76" height="7.51"/><path class="cls-1" d="M57.14,3H5A2,2,0,0,0,3,5V45.82a2,2,0,0,0,2,2H57.14a2,2,0,0,0,2-2V5A2,2,0,0,0,57.14,3ZM48,26.89,32.51,40a1.77,1.77,0,0,1-1,.35,1.65,1.65,0,0,1-.71-.17,1.6,1.6,0,0,1-.86-1.42V33.45H11.4V31.16H32.22v6.08L45.91,25.61,32.22,14.51v5.06H17.43v-2.3H29.92V13a1.59,1.59,0,0,1,2.68-1.17L48,24.39a1.58,1.58,0,0,1-.09,2.5Z"/><path class="cls-2" d="M57.14,0H5A5,5,0,0,0,0,5V45.82a5,5,0,0,0,5,5H20.69v8.1H14.43v3H47.71v-3H41.45v-8.1H57.14a5,5,0,0,0,5-5V5A5,5,0,0,0,57.14,0ZM38.45,58.92H23.69V51.41H38.45Zm20.69-13.1a2,2,0,0,1-2,2H5a2,2,0,0,1-2-2V5A2,2,0,0,1,5,3H57.14a2,2,0,0,1,2,2Z"/><path class="cls-2" d="M32.6,11.86A1.59,1.59,0,0,0,29.92,13v4.24H17.43v2.3H32.22V14.51l13.69,11.1L32.22,37.24V31.16H11.4v2.29H29.92v5.32a1.6,1.6,0,0,0,.86,1.42,1.65,1.65,0,0,0,.71.17,1.77,1.77,0,0,0,1-.35L48,26.89a1.58,1.58,0,0,0,.09-2.5Z"/></g></g></g></svg>