<?xml version="1.0" encoding="UTF-8"?>
<svg xmlns="http://www.w3.org/2000/svg" version="1.1" viewBox="0 0 48 48">
  <defs>
    <style>
      .cls-1 {
        fill: #1e2b3c;
      }
    </style>
  </defs>
  <!-- Generator: Adobe Illustrator 28.7.10, SVG Export Plug-In . SVG Version: 1.2.0 Build 236)  -->
  <g>
    <g id="Layer_1">
      <g>
        <path class="cls-1" d="M24.6,15.6c10.1,0,17.6,5.7,22.5,13.9l-2.3,1.3c-4.5-7.6-11.3-12.6-20.2-12.6s-13.3,2.5-17.7,7.4l-2-1.8c5-5.5,12.2-8.3,19.6-8.3ZM5.2,27.6c-.8,1-1.5,2-2.1,3.1l-2.3-1.3c.7-1.2,1.5-2.4,2.3-3.5l2.1,1.6Z"/>
        <path class="cls-1" d="M25.9,3.7v7.9h-2.7V3.7h2.7Z"/>
        <path class="cls-1" d="M4.2,9.4l5.7,5.6-1.9,1.9-5.7-5.6,1.9-1.9Z"/>
        <path class="cls-1" d="M47.2,11.2l-5.7,5.6-1.9-1.9,5.7-5.6,1.9,1.9Z"/>
        <path class="cls-1" d="M30.2,37.6c-1.6,1.2-3.5,1.8-5.6,1.8-5.2,0-9.3-4.1-9.3-9.3s4.2-9.3,9.3-9.3,9.3,4.1,9.3,9.3-.7,4-1.9,5.5l6.8,6.8-1.9,1.9-6.8-6.8ZM31.3,30.2c0-3.7-3-6.6-6.7-6.6s-6.7,3-6.7,6.6,3,6.6,6.7,6.6,6.7-3,6.7-6.6Z"/>
      </g>
    </g>
  </g>
</svg>