<svg xmlns="http://www.w3.org/2000/svg" viewBox="0 0 50.03 62.13"><defs><style>.cls-1{fill:#1e2b3c;}</style></defs><g id="Layer_2" data-name="Layer 2"><g id="Ikoner"><g id="eInnsyn"><rect class="cls-1" x="14.38" y="6.93" width="9.71" height="3"/><path class="cls-1" d="M40.64,39.3a14.25,14.25,0,0,0-2.17-19V5a5,5,0,0,0-5-5H5A5,5,0,0,0,0,5V57.13a5,5,0,0,0,5,5H33.47a5,5,0,0,0,5-5V42.79l8.74,8.73L50,48.69ZM35.47,57.13a2,2,0,0,1-2,2H5a2,2,0,0,1-2-2V5A2,2,0,0,1,5,3H33.47a2,2,0,0,1,2,2V18.23a14.32,14.32,0,1,0,0,25.5Zm3-20h0c-.17.26-.35.5-.53.74l-.13.17c-.15.19-.32.37-.48.55l-.26.28c-.15.16-.32.31-.48.45l-.31.29c-.18.15-.38.29-.57.43A11.32,11.32,0,1,1,35.84,22c.14.1.28.2.42.32a5.36,5.36,0,0,1,.43.4c.12.11.25.21.36.33s.24.26.36.39.26.29.38.44l.2.27c.17.21.33.43.48.65a11.26,11.26,0,0,1,0,12.37Z"/></g></g></g></svg>