<svg xmlns="http://www.w3.org/2000/svg" viewBox="0 0 54.06 62.13"><defs><style>.cls-1{fill:#1e2b3c;}.cls-2{fill:none;stroke:#1eacf5;stroke-linecap:round;stroke-linejoin:round;stroke-width:0;}</style></defs><g id="Layer_2" data-name="Layer 2"><g id="Ikoner"><g id="eSignering"><rect class="cls-1" x="14.38" y="6.93" width="9.71" height="3"/><path class="cls-1" d="M46.3,8.17,38.48,16V5a5,5,0,0,0-5-5H5A5,5,0,0,0,0,5V57.13a5,5,0,0,0,5,5H33.48a5,5,0,0,0,5-5V31.51L54.06,15.93Zm-10.82,49a2,2,0,0,1-2,2H5a2,2,0,0,1-2-2V5A2,2,0,0,1,5,3H33.48a2,2,0,0,1,2,2V19L20.19,34.28l-.17.17L14.09,48.14l13.69-5.93,7.7-7.7ZM22.09,36l4.18,4.18L18.9,43.33Zm16.39-8-3,3-7.42,7.42-4.22-4.22L35.48,22.52l3-3L41.8,16.2,46,20.43Zm5.09-13.55L46.3,11.7l4.23,4.23L47.8,18.66Z"/><line class="cls-2" x1="22.07" y1="34.17" x2="22.07" y2="34.17"/><line class="cls-2" x1="28.06" y1="40.16" x2="28.06" y2="40.16"/></g></g></g></svg>