<svg xmlns="http://www.w3.org/2000/svg" viewBox="0 0 48.37 62.14"><defs><style>.cls-1{fill:#1e2b3c;}</style></defs><g id="Layer_2" data-name="Layer 2"><g id="Ikoner"><g id="ID-porten"><rect class="cls-1" x="14.96" y="7.06" width="9.71" height="3"/><path class="cls-1" d="M42.09,25.49a12.82,12.82,0,0,0-3.62-1.91,13.93,13.93,0,0,0-3-.67c-.22,0-.44-.06-.67-.07a13.45,13.45,0,0,0-5.36.67,12.62,12.62,0,0,0-7.54,6.65,12.76,12.76,0,0,0-1.16,6.73,19.07,19.07,0,0,0,1,4.57,2.25,2.25,0,0,0,.3.57.9.9,0,0,0,.75.38,1,1,0,0,0,.9-.38,1.1,1.1,0,0,0,.21-.93,2.54,2.54,0,0,0-.1-.36l-.07-.19c0-.07-.05-.14-.07-.2a17.44,17.44,0,0,1-.76-3.51,11.51,11.51,0,0,1,.12-3.44,9.89,9.89,0,0,1,4.6-6.62A12.26,12.26,0,0,1,34.24,25L35,25l.44.05a10.05,10.05,0,0,1,3,.78c.21.09.43.18.64.29a10.7,10.7,0,0,1,5.72,7.61A5.44,5.44,0,0,1,45,35.68a2.73,2.73,0,0,1-.75,1.59A3,3,0,0,1,41,38a2.74,2.74,0,0,1-1.8-2,5.24,5.24,0,0,1-.17-.91l0-.2a5.3,5.3,0,0,0-.55-1.78,4.68,4.68,0,0,0-1.1-1.37,5.36,5.36,0,0,0-1.9-1.06,5.45,5.45,0,0,0-2.22-.18,5,5,0,0,0-3.53,2,5.09,5.09,0,0,0-.95,3.36,12.18,12.18,0,0,0,.5,2.82A11.41,11.41,0,0,0,33,44.56a12.86,12.86,0,0,0,2.44,1.56v11a2,2,0,0,1-2,2H5a2,2,0,0,1-2-2V5A2,2,0,0,1,5,3H33.47a2,2,0,0,1,2,2V15.27c-.47,0-.93-.06-1.4-.06h0a17.9,17.9,0,0,0-2.44.15A21.42,21.42,0,0,0,27,16.42a17.83,17.83,0,0,0-2.39,1,2.55,2.55,0,0,0-.6.45,1,1,0,0,0-.11,1.16.9.9,0,0,0,1,.56,2.49,2.49,0,0,0,.65-.2l.71-.32c.31-.14.61-.28.93-.41a17.84,17.84,0,0,1,6.1-1.36,16,16,0,0,1,2.19.07,18.51,18.51,0,0,1,3,.53c.38.11.76.21,1.13.33a21.35,21.35,0,0,1,2.65,1.1,3.2,3.2,0,0,0,.62.24A1,1,0,0,0,44,19.1a1,1,0,0,0-.17-1.27,3.21,3.21,0,0,0-.59-.4,20.74,20.74,0,0,0-4.78-1.72V5a5,5,0,0,0-5-5H5A5,5,0,0,0,0,5V57.14a5,5,0,0,0,5,5H33.47a5,5,0,0,0,5-5V47.21h.09a.94.94,0,0,0,.93-.69.92.92,0,0,0-.33-1.12,4,4,0,0,0-.66-.35h0c-.16-.07-.32-.12-.49-.18l-.32-.11a10.8,10.8,0,0,1-2.19-1.13A10,10,0,0,1,31,36.73a5.49,5.49,0,0,1,0-1.67,2.7,2.7,0,0,1,1.86-2.21,3.3,3.3,0,0,1,1.88-.09,2.62,2.62,0,0,1,.75.3,2.46,2.46,0,0,1,1,1,3.92,3.92,0,0,1,.38,1.14l.06.4c0,.26.08.51.14.76a5.09,5.09,0,0,0,1.45,2.56,4.77,4.77,0,0,0,1.14.83,5.15,5.15,0,0,0,3.77.41,4.94,4.94,0,0,0,3.77-4.76,10.4,10.4,0,0,0-.2-2.14A12.35,12.35,0,0,0,42.09,25.49Z"/><path class="cls-1" d="M27,34.56a6.24,6.24,0,0,1,2-3.84,7.07,7.07,0,0,1,6.25-1.82l.21.05a6.9,6.9,0,0,1,3,1.38,7.42,7.42,0,0,1,1.74,2.08,4.83,4.83,0,0,1,.71,2.49c0,.1,0,.21,0,.31a1.11,1.11,0,0,0,.5.78,1.05,1.05,0,0,0,1.08.09,1,1,0,0,0,.59-.89,3.77,3.77,0,0,0,0-.76,8.63,8.63,0,0,0-2.53-5.1,10.08,10.08,0,0,0-2.11-1.59,8.49,8.49,0,0,0-3-1,9.55,9.55,0,0,0-3.06,0,9.26,9.26,0,0,0-5.24,2.7A8.64,8.64,0,0,0,24.72,35a10.34,10.34,0,0,0,.15,2.57A17.39,17.39,0,0,0,26,41.42a14.68,14.68,0,0,0,3.43,4.86,1.52,1.52,0,0,0,1.11.45h.13a1,1,0,0,0,.78-.46.91.91,0,0,0,0-.89,2.66,2.66,0,0,0-.41-.54,16.33,16.33,0,0,1-1.38-1.57A12.59,12.59,0,0,1,26.9,36l0-.44C27,35.2,27,34.88,27,34.56Z"/><path class="cls-1" d="M48.19,26.19a6.26,6.26,0,0,0-.43-.62,16.28,16.28,0,0,0-4-3.67,17.75,17.75,0,0,0-5.32-2.33,17.4,17.4,0,0,0-3-.5C35,19,34.58,19,34.13,19h0a18.46,18.46,0,0,0-3.94.39,17.14,17.14,0,0,0-10,6.1,6.45,6.45,0,0,0-.43.63,1.33,1.33,0,0,0-.16.89.91.91,0,0,0,.93.81h.12a1.19,1.19,0,0,0,.66-.28,5.51,5.51,0,0,0,.41-.43c.17-.19.34-.37.5-.56.32-.37.65-.75,1-1.09a15.49,15.49,0,0,1,12.24-4.22c.35,0,.7.07,1.05.13a15.39,15.39,0,0,1,1.95.46,15.08,15.08,0,0,1,4.38,2.08,13.69,13.69,0,0,1,3.46,3.36,1.22,1.22,0,0,0,1.06.51h0a.91.91,0,0,0,.92-.66A1,1,0,0,0,48.19,26.19Z"/><path class="cls-1" d="M43.22,41.73a2.26,2.26,0,0,0-.64,0,6.8,6.8,0,0,1-2.37-.06,6.49,6.49,0,0,1-1.74-.59,5.61,5.61,0,0,1-1.63-1.19,6.34,6.34,0,0,1-1.37-2.18A7.81,7.81,0,0,1,35,35.83a5.83,5.83,0,0,0-.16-.83.88.88,0,0,0-.73-.64,1.09,1.09,0,0,0-.87.17,1.25,1.25,0,0,0-.43,1v.26a5.37,5.37,0,0,0,0,.7,8.05,8.05,0,0,0,2.61,5l.09.09a9,9,0,0,0,2.91,1.74,10.23,10.23,0,0,0,3.47.59h.7a5,5,0,0,0,.73-.1,1.08,1.08,0,0,0-.15-2.13Z"/></g></g></g></svg>