<?xml version="1.0" encoding="UTF-8"?>
<svg xmlns="http://www.w3.org/2000/svg" version="1.1" viewBox="0 0 48 48">
  <defs>
    <style>
      .cls-1, .cls-2 {
        fill: #1e2b3c;
      }

      .cls-2 {
        fill-rule: evenodd;
      }
    </style>
  </defs>
  <!-- Generator: Adobe Illustrator 28.7.10, SVG Export Plug-In . SVG Version: 1.2.0 Build 236)  -->
  <g>
    <g id="Layer_1">
      <g>
        <path class="cls-2" d="M15.8,47.5v-2.4h-3.5v2.4h3.5Z"/>
        <path class="cls-2" d="M39.5,13.4h-.2v23.7l3,3.5c.4.4.6,1,.6,1.5v3.1c0,1.3-1.1,2.4-2.4,2.4h-22.3v-2.4h22.3v-3.1l-3.2-3.8-.3-.3V13.4H11.4v24.6l-3.9,4.1v1.9h-2.4v-1.9c0-.6.2-1.2.6-1.6l3.2-3.4V13.4h-.6c-1.1-.1-2-1-2.1-2.1v-.2s0-8.4,0-8.4c0-1.2,1-2.2,2.2-2.2h3.8c.4,0,.8.2,1,.5l1.6,2.5h4.4l2.1-2.6c.2-.3.6-.4.9-.4h3.3c.4,0,.7.2.9.5l1.9,2.5h4.4l1.9-2.5c.2-.3.5-.4.8-.5h.1s3.8,0,3.8,0c1.2,0,2.2,1,2.2,2.2v8.6c-.1,1.1-1,2-2.1,2.1ZM36.9,11.1h2.4V2.8h-3.1l-2.2,3h-6.8l-2.2-3h-2.1l-2.5,3h-6.8l-2-3h-3v8.2h28.2Z"/>
        <path class="cls-1" d="M21.6,29.9c0,.9.5,1.6,1.2,2v2.7h2.4v-2.7c.7-.4,1.2-1.2,1.2-2,0-1.3-1.1-2.4-2.4-2.4s-2.4,1.1-2.4,2.4Z"/>
        <path class="cls-2" d="M30.3,36.5c-.7.7-1.5,1.4-2.4,2.1.7-.6,1.4-1.2,2-1.8.1-.1.2-.2.3-.3Z"/>
        <path class="cls-2" d="M22.8,31.9c-.7-.4-1.2-1.2-1.2-2,0-1.3,1.1-2.4,2.4-2.4s2.4,1.1,2.4,2.4-.5,1.6-1.2,2v2.7h-2.4v-2.7Z"/>
        <path class="cls-2" d="M18.1,23.9v-2.2c0-3.2,2.6-5.9,5.9-5.9s5.9,2.6,5.9,5.9v2.2l1.6.6c.5.2.8.6.8,1.1v7.2c0,1.7-.7,2.5-1.9,3.7-.7.7-1.6,1.6-2.6,2.2h0s0,0,0,0h0s0,0,0,0c0,0-.1,0-.2.1-.4.2-.7.5-1.1.7-.8.5-1.7.8-2.4.8-1.8,0-4.3-1.9-6-3.6l-.3-.3c-1.2-1.2-1.8-2-1.9-3.7v-.3s0-6.8,0-6.8c0-.5.3-.9.8-1.1l1.6-.6ZM24.8,22l2.7,1v-1.3c0-1.9-1.6-3.5-3.5-3.5s-3.5,1.6-3.5,3.5v1.3l2.7-1c.5-.2,1.1-.2,1.7,0ZM24,24.2l5.9,2.2v6c0,1.3-.4,1.7-.9,2.2,0,0-.2.2-.2.2,0,0-.2.2-.2.2-.6.5-1.2,1.1-1.8,1.6-.2.2-.5.4-.7.5-1,.7-1.7.9-1.9.9-.3,0-.9-.2-1.9-.9-1-.7-2-1.5-2.8-2.4,0,0-.2-.2-.2-.2-.6-.5-.9-.9-.9-2.2v-6l5.9-2.2ZM22.8,31.9c-.7-.4-1.2-1.2-1.2-2,0-1.3,1.1-2.4,2.4-2.4s2.4,1.1,2.4,2.4-.5,1.6-1.2,2v2.7h-2.4v-2.7Z"/>
      </g>
    </g>
  </g>
</svg>