<svg xmlns="http://www.w3.org/2000/svg" viewBox="0 0 59.75 62.13"><defs><style>.cls-1{fill:none;}.cls-2{fill:#1e2b3c;}</style></defs><g id="Layer_2" data-name="Layer 2"><g id="Ikoner"><g id="Kontakt_og_reservasjonsregisteret" data-name="Kontakt og reservasjonsregisteret"><polygon class="cls-1" points="28.57 23.94 24.65 19.08 16.64 19.08 16.64 42.73 24 28.26 35.48 28.26 38.48 28.26 47.32 28.26 47.32 23.94 38.48 23.94 35.48 23.94 28.57 23.94"/><path class="cls-1" d="M14.14,16.58H25.85l3.91,4.86h5.72V5a2,2,0,0,0-2-2H5A2,2,0,0,0,3,5V57.13a2,2,0,0,0,2,2H33.48a2,2,0,0,0,2-2V48H14.14Zm.25-9.64H24.1v3H14.39Z"/><polygon class="cls-1" points="38.48 30.76 35.48 30.76 25.53 30.76 18.06 45.46 35.48 45.46 38.48 45.46 48.19 45.46 55.67 30.76 38.48 30.76"/><rect class="cls-2" x="14.39" y="6.94" width="9.71" height="3"/><path class="cls-2" d="M49.82,28.26V21.44H38.48V5a5,5,0,0,0-5-5H5A5,5,0,0,0,0,5V57.13a5,5,0,0,0,5,5H33.48a5,5,0,0,0,5-5V48H49.73l10-19.7ZM38.48,23.94h8.84v4.32H24L16.64,42.73V19.08h8l3.92,4.86h9.91Zm-3,33.19a2,2,0,0,1-2,2H5a2,2,0,0,1-2-2V5A2,2,0,0,1,5,3H33.48a2,2,0,0,1,2,2V21.44H29.76l-3.91-4.86H14.14V48H35.48ZM48.19,45.46H18.06l7.47-14.7H55.67Z"/></g></g></g></svg>