<svg xmlns="http://www.w3.org/2000/svg" viewBox="0 0 62.14 61.92"><defs><style>.cls-1{fill:none;}.cls-2{fill:#1e2b3c;}</style></defs><g id="Layer_2" data-name="Layer 2"><g id="Ikoner"><rect class="cls-1" x="23.69" y="51.41" width="14.76" height="7.51"/><path class="cls-1" d="M28.3,21.2,28,20.71A6.9,6.9,0,1,0,22.2,31.38c4.56,0,6-5,6-5l.27-1.14h1.32l1.4,2.52h3.92l2.79-2.34.21-.18.22.18,2.83,2.34h2.89l3.28-3.28L44.08,21.2ZM20,26.2a1.73,1.73,0,1,1,1.72-1.73A1.72,1.72,0,0,1,20,26.2Z"/><path class="cls-1" d="M57.14,3H5A2,2,0,0,0,3,5V45.82a2,2,0,0,0,2,2H57.14a2,2,0,0,0,2-2V5A2,2,0,0,0,57.14,3ZM45,30H40.38L38.14,28.1,35.93,30H30l-.53-.89a8.34,8.34,0,0,1-7.24,4.52A9.1,9.1,0,1,1,29.46,19H45l5.47,5.47Z"/><path class="cls-2" d="M57.14,0H5A5,5,0,0,0,0,5V45.82a5,5,0,0,0,5,5H20.69v8.1H14.43v3H47.71v-3H41.45v-8.1H57.14a5,5,0,0,0,5-5V5A5,5,0,0,0,57.14,0ZM38.45,58.92H23.69V51.41H38.45Zm20.69-13.1a2,2,0,0,1-2,2H5a2,2,0,0,1-2-2V5A2,2,0,0,1,5,3H57.14a2,2,0,0,1,2,2Z"/><path class="cls-2" d="M29.46,19A9.1,9.1,0,1,0,22.2,33.58a8.34,8.34,0,0,0,7.24-4.52L30,30h6l2.21-1.85L40.38,30H45l5.47-5.48L45,19Zm14.61,8.75H41.18l-2.83-2.34-.22-.18-.21.18-2.79,2.34H31.21l-1.4-2.52H28.49l-.27,1.14c0,.05-1.46,5-6,5A6.9,6.9,0,1,1,28,20.71l.33.49H44.08l3.27,3.27Z"/><circle class="cls-2" cx="20.03" cy="24.47" r="1.72"/></g></g></svg>