<svg xmlns="http://www.w3.org/2000/svg" viewBox="0 0 50.58 62.13"><defs><style>.cls-1{fill:#1e2b3c;}</style></defs><g id="Layer_2" data-name="Layer 2"><g id="Ikoner"><g id="Digital_postkasse" data-name="Digital postkasse"><rect class="cls-1" x="14.38" y="6.93" width="9.71" height="3"/><path class="cls-1" d="M38.48,17.45V5a5,5,0,0,0-5-5H5A5,5,0,0,0,0,5V57.13a5,5,0,0,0,5,5H33.48a5,5,0,0,0,5-5V44.68h12.1V17.45Zm0,2.32h9L30.36,34.62,13.29,19.77H38.48Zm-3,37.36a2,2,0,0,1-2,2H5a2,2,0,0,1-2-2V5A2,2,0,0,1,5,3H33.48a2,2,0,0,1,2,2V17.45H10.13V44.68H35.48Zm12.6-15H12.63V22.51L30.36,37.93,48.08,22.51Z"/></g></g></g></svg>