<svg id="logoer" xmlns="http://www.w3.org/2000/svg" viewBox="0 0 105.19 38.86"><defs><style>.cls-1{fill:#fff;}</style></defs><path class="cls-1" d="M42.74,28.27a.12.12,0,0,1-.12-.13V10.79a.12.12,0,0,1,.12-.12h6.45c5.25,0,7.83,3.72,7.83,9s-2.58,8.63-7.83,8.63Zm6.45-2.13c3.35,0,5.33-2.25,5.33-6.5s-2-6.85-5.33-6.85H45.12a.12.12,0,0,0-.13.13V26a.12.12,0,0,0,.13.12Z"/><path class="cls-1" d="M65,28.52c-3.93,0-6.2-2.68-6.2-6.58s2.27-6.57,6.2-6.57,6.2,2.67,6.2,6.57S68.92,28.52,65,28.52Zm0-11c-2.38,0-3.83,1.85-3.83,4.45s1.45,4.45,3.83,4.45,3.82-1.85,3.82-4.45S67.42,17.49,65,17.49Z"/><path class="cls-1" d="M82.79,19.89a.17.17,0,0,1-.15-.12,3.4,3.4,0,0,0-3.45-2.28c-2.37,0-3.8,1.85-3.8,4.45s1.43,4.45,3.8,4.45a3.4,3.4,0,0,0,3.45-2.27c0-.08.08-.13.15-.13H85c.07,0,.15,0,.12.13-.7,2.77-2.77,4.4-6,4.4-3.92,0-6.17-2.68-6.17-6.58s2.25-6.57,6.17-6.57c3.18,0,5.28,1.65,6,4.4,0,.1,0,.12-.12.12Z"/><path class="cls-1" d="M95.27,19.89a.12.12,0,0,1-.13-.12c0-1.38-1.1-2.28-3.12-2.28s-2.7.83-2.7,1.6c0,1.43,1.8,1.45,3.05,1.63,2.5.35,5.5.57,5.5,3.77,0,2.85-2.38,4-5.5,4-3.8,0-5.65-2-5.65-4.4a.12.12,0,0,1,.12-.13h2.1a.14.14,0,0,1,.15.13c0,1.25,1.28,2.27,3.28,2.27,1.27,0,3.12-.27,3.12-1.9,0-1.42-2.07-1.52-3.12-1.65-2.4-.27-5.43-.65-5.43-3.75,0-2.05,2-3.72,5.08-3.72s5.5,1.45,5.5,4.4c0,.07,0,.12-.1.12Z"/><path class="cls-1" d="M19.73,7.06H7.56a.51.51,0,0,0-.5.5V31.3a.51.51,0,0,0,.5.5H19.73a12.37,12.37,0,0,0,0-24.74m1.19,21a8.8,8.8,0,1,1,7.18-7.18,8.8,8.8,0,0,1-7.18,7.18"/></svg>