<svg width="80" height="50" viewBox="0 0 80 50" fill="none" xmlns="http://www.w3.org/2000/svg">
<rect width="80" height="50" rx="2" fill="#4200FF"/>
<path d="M22.4531 31H20.5859V21.1797H17.2266V19.5781H25.8125V21.1797H22.4531V31ZM31.1484 31.1562C29.8047 31.1562 28.7526 30.7656 27.9922 29.9844C27.237 29.1979 26.8594 28.1172 26.8594 26.7422C26.8594 25.3307 27.2109 24.2214 27.9141 23.4141C28.6172 22.6068 29.5833 22.2031 30.8125 22.2031C31.9531 22.2031 32.8542 22.5495 33.5156 23.2422C34.1771 23.9349 34.5078 24.888 34.5078 26.1016V27.0938H28.75C28.776 27.9323 29.0026 28.5781 29.4297 29.0312C29.8568 29.4792 30.4583 29.7031 31.2344 29.7031C31.7448 29.7031 32.2188 29.6562 32.6562 29.5625C33.099 29.4635 33.5729 29.3021 34.0781 29.0781V30.5703C33.6302 30.7839 33.1771 30.9349 32.7188 31.0234C32.2604 31.112 31.737 31.1562 31.1484 31.1562ZM30.8125 23.5938C30.2292 23.5938 29.7604 23.7786 29.4062 24.1484C29.0573 24.5182 28.849 25.0573 28.7812 25.7656H32.7031C32.6927 25.0521 32.5208 24.513 32.1875 24.1484C31.8542 23.7786 31.3958 23.5938 30.8125 23.5938ZM42.3984 28.5391C42.3984 29.3828 42.0911 30.0312 41.4766 30.4844C40.862 30.9323 39.9818 31.1562 38.8359 31.1562C37.6849 31.1562 36.7604 30.9818 36.0625 30.6328V29.0469C37.0781 29.5156 38.0234 29.75 38.8984 29.75C40.0286 29.75 40.5938 29.4089 40.5938 28.7266C40.5938 28.5078 40.5312 28.3255 40.4062 28.1797C40.2812 28.0339 40.0755 27.8828 39.7891 27.7266C39.5026 27.5703 39.1042 27.3932 38.5938 27.1953C37.599 26.8099 36.9245 26.4245 36.5703 26.0391C36.2214 25.6536 36.0469 25.1536 36.0469 24.5391C36.0469 23.7995 36.3438 23.2266 36.9375 22.8203C37.5365 22.4089 38.349 22.2031 39.375 22.2031C40.3906 22.2031 41.3516 22.4089 42.2578 22.8203L41.6641 24.2031C40.7318 23.8177 39.9479 23.625 39.3125 23.625C38.3438 23.625 37.8594 23.901 37.8594 24.4531C37.8594 24.724 37.9844 24.9531 38.2344 25.1406C38.4896 25.3281 39.0417 25.5859 39.8906 25.9141C40.6042 26.1901 41.1224 26.4427 41.4453 26.6719C41.7682 26.901 42.0078 27.1667 42.1641 27.4688C42.3203 27.7656 42.3984 28.1224 42.3984 28.5391ZM47.6094 29.6719C48.0573 29.6719 48.5052 29.6016 48.9531 29.4609V30.8438C48.75 30.9323 48.487 31.0052 48.1641 31.0625C47.8464 31.125 47.5156 31.1562 47.1719 31.1562C45.4323 31.1562 44.5625 30.2396 44.5625 28.4062V23.75H43.3828V22.9375L44.6484 22.2656L45.2734 20.4375H46.4062V22.3594H48.8672V23.75H46.4062V28.375C46.4062 28.8177 46.5156 29.1458 46.7344 29.3594C46.9583 29.5677 47.25 29.6719 47.6094 29.6719ZM50.8828 31V19.5781H52.75V31H50.8828ZM65.0625 25.1797C65.0625 27.0651 64.5391 28.5078 63.4922 29.5078C62.4453 30.5026 60.9375 31 58.9688 31H55.7734V19.5781H59.3047C61.1224 19.5781 62.5365 20.0677 63.5469 21.0469C64.5573 22.026 65.0625 23.4036 65.0625 25.1797ZM63.0938 25.2422C63.0938 22.5078 61.8151 21.1406 59.2578 21.1406H57.6406V29.4297H58.9688C61.7188 29.4297 63.0938 28.0339 63.0938 25.2422Z" fill="white"/>
</svg>
